<svg version="1.1" id="Layer_1" xmlns="http://www.w3.org/2000/svg" xmlns:xlink="http://www.w3.org/1999/xlink" x="0px" y="0px"
	 width="100%" viewBox="0 0 300 300" enable-background="new 0 0 300 300" xml:space="preserve">
<path fill="#000000" opacity="1.000000" stroke="none" 
	d="
M204.000000,301.000000 
	C136.000015,301.000000 68.500023,301.000000 1.000027,301.000000 
	C1.000018,201.000031 1.000018,101.000061 1.000009,1.000067 
	C100.999947,1.000045 200.999893,1.000045 300.999878,1.000022 
	C300.999939,100.999939 300.999939,200.999878 300.999969,300.999908 
	C268.833344,301.000000 236.666672,301.000000 204.000000,301.000000 
M100.981361,231.988922 
	C100.981361,231.988922 100.991585,232.059952 101.517159,231.904144 
	C101.697701,231.598480 101.878242,231.292816 101.982445,230.977432 
	C101.982445,230.977432 101.972725,231.053757 102.586067,231.030228 
	C103.078484,230.682129 103.570908,230.334030 103.982674,229.976761 
	C103.982674,229.976761 103.973480,230.057404 104.468346,229.728668 
	C104.997849,229.141083 105.527359,228.553497 105.982346,227.990417 
	C105.982346,227.990417 106.006828,228.064941 106.523354,227.780701 
	C107.024033,227.186111 107.524704,226.591522 107.966713,225.989807 
	C107.966713,225.989807 107.984062,226.046310 108.461868,225.615601 
	C108.998329,224.746674 109.534798,223.877762 110.002838,222.996414 
	C110.002838,222.996414 109.992722,223.065216 110.611328,223.087814 
	C111.096832,222.721298 111.582336,222.354782 111.986420,221.983032 
	C111.986420,221.983032 111.981155,222.064468 112.463310,221.652481 
	C112.751694,221.092560 113.040070,220.532639 113.867401,219.621078 
	C116.707184,217.439774 119.824837,215.535400 122.330704,213.021286 
	C128.098923,207.233963 133.569687,201.150131 139.814133,194.970093 
	C145.351166,191.672897 147.290146,188.143082 144.627441,185.292343 
	C141.336746,181.769226 142.965012,179.902634 146.218323,178.129837 
	C146.218323,178.129837 146.450562,178.004807 146.832428,177.452530 
	C147.536438,176.935486 148.240448,176.418442 149.629440,176.077454 
	C154.449646,178.460983 159.269867,180.844498 164.676941,183.248535 
	C165.156677,183.560654 165.636414,183.872772 166.079666,184.762894 
	C166.227341,185.509552 166.375000,186.256210 166.864990,187.899200 
	C166.887833,194.600693 166.910660,201.302200 167.006668,208.023575 
	C167.006668,208.023575 167.026581,207.950409 166.194611,207.914032 
	C164.813812,207.974304 163.433029,208.034592 161.605728,207.382248 
	C161.430389,203.280151 161.392960,199.164993 161.006577,195.082886 
	C160.867096,193.609467 160.127441,191.160599 159.255234,190.964478 
	C155.105835,190.031525 150.675537,188.324158 146.818069,192.957031 
	C146.767822,196.097229 146.807877,199.242172 146.642761,202.376312 
	C146.465759,205.735657 144.995041,207.099014 141.395752,205.980469 
	C140.165359,205.598129 138.487427,206.655930 136.366989,207.242661 
	C134.743439,208.841019 132.823730,210.252869 131.641968,212.129440 
	C131.168839,212.880737 132.063950,215.624420 132.773239,215.812408 
	C138.973969,217.455795 145.224762,219.516037 151.556335,219.907990 
	C159.626709,220.407562 167.786148,219.468628 176.477859,219.312805 
	C181.303207,217.464645 186.415405,216.131378 190.883514,213.642044 
	C196.886414,210.297607 202.391907,206.060410 208.737778,201.953781 
	C210.624573,200.162399 212.646469,198.491791 214.374573,196.558548 
	C221.557068,188.523392 228.187576,180.143402 230.632553,168.569580 
	C231.665436,164.726791 232.698318,160.883987 233.928619,156.315948 
	C233.991241,155.566971 234.053864,154.817993 234.459778,153.404404 
	C236.781357,138.959549 234.099426,125.090508 229.377289,111.523689 
	C228.919846,110.209412 226.753540,108.528023 225.511642,108.629066 
	C221.787598,108.932060 217.771194,116.815155 218.610504,120.630363 
	C220.306564,128.339920 221.711624,136.113480 223.143387,144.666473 
	C223.140793,145.476654 223.138199,146.286819 222.931839,147.669662 
	C222.324570,151.452744 221.717300,155.235840 220.652237,159.418350 
	C219.388092,162.405533 218.272781,165.468796 216.799973,168.349289 
	C216.007965,169.898285 214.811523,172.012894 213.433563,172.340317 
	C209.781540,173.208130 209.264862,175.328110 208.830597,178.600967 
	C208.303223,182.575729 208.159119,187.497437 201.839493,187.275391 
	C197.473251,185.408585 193.169907,184.690536 188.981308,188.889526 
	C188.924835,192.037003 189.327286,195.292648 188.621368,198.287033 
	C188.259842,199.820557 185.915573,200.886642 184.467377,202.163971 
	C183.677856,200.922791 182.280228,199.716263 182.207214,198.434280 
	C181.934387,193.644287 182.095459,188.829605 182.574997,183.726181 
	C184.537735,183.264572 186.508148,182.833069 188.461884,182.336105 
	C196.389023,180.319717 201.976746,175.045471 207.606445,168.703369 
	C208.886765,167.007980 210.663315,165.491455 211.351395,163.582596 
	C213.179535,158.510880 214.538071,153.269913 216.319809,147.470871 
	C215.505020,140.690628 214.733063,133.904846 213.860214,127.132095 
	C213.289932,122.707077 207.380737,120.365837 209.647858,114.709244 
	C216.778152,107.167572 223.908447,99.625900 231.716797,91.823906 
	C234.054993,90.813416 236.852829,90.295120 238.605896,88.658035 
	C240.467621,86.919518 245.674606,88.035782 244.183945,82.453476 
	C244.805939,81.635193 245.745193,80.902367 245.992767,79.983231 
	C246.871429,76.721146 242.891205,69.768791 239.427322,68.205902 
	C235.880249,66.605484 230.228683,68.751572 226.291077,73.211403 
	C225.622498,74.636253 224.043854,76.427330 224.444168,77.422043 
	C226.104950,81.549057 223.167648,83.477112 220.482376,86.197006 
	C217.779984,89.793701 215.372375,93.668846 212.302673,96.918587 
	C208.208527,101.252892 203.599808,105.101135 198.645691,109.299248 
	C193.688187,107.320351 188.849380,104.933113 183.747681,103.450310 
	C174.088562,100.642876 164.670090,101.461670 155.301193,107.174774 
	C142.529068,114.453133 134.782913,124.964012 134.095581,140.942581 
	C133.895187,149.490906 134.707062,157.853683 139.714233,165.135910 
	C142.125626,168.642929 139.632660,170.622742 137.476456,173.248581 
	C136.239258,173.272415 134.542709,173.827820 133.846176,173.225952 
	C131.153580,170.899338 128.913147,171.040787 126.519157,173.531937 
	C121.257652,179.006973 115.942818,184.430771 110.328178,190.068848 
	C110.127205,190.223236 109.961967,190.409348 109.262421,190.992538 
	C100.515587,200.005295 91.768753,209.018051 82.456657,218.385757 
	C75.514534,224.083466 76.643616,233.416550 84.160561,238.013321 
	C89.221848,241.108398 95.540504,238.758957 100.475380,232.982315 
	C100.667717,232.647766 100.860054,232.313232 100.981361,231.988922 
M104.854355,129.023163 
	C104.810387,145.286667 104.766418,161.550171 104.146957,177.564713 
	C102.846077,176.081955 101.109726,174.801453 100.312386,173.084808 
	C93.184212,157.738220 90.270088,141.901581 95.467918,125.291222 
	C96.936081,120.599503 98.550659,115.953598 100.663712,110.854706 
	C103.841415,106.632515 107.019112,102.410332 110.739044,97.803543 
	C116.028641,93.956711 120.939713,89.355347 126.707558,86.461853 
	C133.308517,83.150421 140.542145,80.850136 147.732941,79.024544 
	C157.921783,76.437805 168.182571,78.583069 177.833786,81.626869 
	C185.378937,84.006454 192.613739,88.013031 199.248672,92.409973 
	C203.676544,95.344315 204.862167,95.977211 208.398392,90.573730 
	C211.007141,87.871979 210.699936,84.446648 208.205826,82.708168 
	C203.165894,79.195152 197.606918,76.352097 192.046448,73.681541 
	C186.455841,70.996529 180.758667,67.407280 174.834061,66.772369 
	C161.479019,65.341179 147.870010,64.596046 134.771225,69.074486 
	C128.995026,71.049355 122.680161,72.536446 117.868919,75.995979 
	C110.278481,81.453903 103.749786,88.388397 96.542191,95.050354 
	C96.379814,95.688950 96.217430,96.327545 95.826805,97.548126 
	C95.527374,98.318748 95.227943,99.089371 94.361229,100.241661 
	C93.144653,101.790367 91.706436,103.213585 90.747101,104.907944 
	C84.006668,116.812737 80.424774,129.387634 80.664711,143.325607 
	C80.937653,159.180771 85.419182,173.522644 93.529579,186.833664 
	C96.925079,192.406448 98.915161,192.291519 103.658348,187.738983 
	C104.614815,186.820984 105.754944,186.087112 106.667511,185.131866 
	C110.493629,181.126709 114.265434,177.069687 118.646584,172.601929 
	C119.365509,169.494370 120.647903,166.392059 120.676804,163.278091 
	C120.725227,158.060516 119.841103,152.841843 119.593727,147.612061 
	C119.281235,141.005615 119.213593,134.387604 118.683258,127.102852 
	C113.995621,125.866127 109.283875,124.299019 104.854355,129.023163 
z"/>
<path fill="#162D40" opacity="1.000000" stroke="none" 
	d="
M118.057129,173.031647 
	C114.265434,177.069687 110.493629,181.126709 106.667511,185.131866 
	C105.754944,186.087112 104.614815,186.820984 103.658348,187.738983 
	C98.915161,192.291519 96.925079,192.406448 93.529579,186.833664 
	C85.419182,173.522644 80.937653,159.180771 80.664711,143.325607 
	C80.424774,129.387634 84.006668,116.812737 90.747101,104.907944 
	C91.706436,103.213585 93.144653,101.790367 94.664070,100.482544 
	C94.401436,105.350029 96.916611,108.480179 100.098083,111.286674 
	C98.550659,115.953598 96.936081,120.599503 95.467918,125.291222 
	C90.270088,141.901581 93.184212,157.738220 100.312386,173.084808 
	C101.109726,174.801453 102.846077,176.081955 104.615967,177.527634 
	C105.392838,176.318619 105.700691,175.146698 106.142151,173.588211 
	C106.513618,171.239624 106.950592,169.278259 106.957130,167.315460 
	C107.000664,154.242111 106.952209,141.168457 107.396088,128.079666 
	C111.246155,128.043030 114.633774,128.021637 118.021736,128.468872 
	C118.033760,143.635559 118.045448,158.333603 118.057129,173.031647 
z"/>
<path fill="#1A3245" opacity="1.000000" stroke="none" 
	d="
M134.155090,140.053131 
	C134.782913,124.964012 142.529068,114.453133 155.544800,107.388847 
	C155.194382,110.738548 154.600342,113.874176 153.806793,117.275223 
	C149.673721,122.386238 144.428436,126.493607 144.104797,134.019165 
	C146.322128,134.019165 148.098938,134.019165 149.881897,134.417068 
	C149.255142,143.337921 147.660721,152.098099 154.778458,158.997086 
	C157.367020,161.506104 160.681595,163.354141 162.924805,166.106873 
	C165.205521,168.905609 166.582321,168.743881 168.742508,166.263840 
	C171.925919,162.609039 176.303192,163.430191 179.742920,164.965118 
	C185.470947,167.521133 188.123840,167.799225 192.170227,162.940369 
	C195.805542,158.575119 198.809052,153.683731 202.481140,149.001923 
	C204.903137,148.642181 206.935272,148.304947 209.149887,148.232544 
	C211.781082,151.702576 214.060730,152.062164 216.083405,148.096268 
	C214.538071,153.269913 213.179535,158.510880 211.351395,163.582596 
	C210.663315,165.491455 208.886765,167.007980 207.238098,168.502411 
	C204.838867,162.838455 204.118042,162.839539 199.082794,167.388428 
	C189.022369,176.477142 177.335175,179.096451 164.413300,175.189102 
	C152.044754,171.449066 144.467484,162.769867 141.841125,150.343384 
	C140.773514,145.292068 139.037903,141.765823 134.155090,140.053131 
z"/>
<path fill="#1B3548" opacity="1.000000" stroke="none" 
	d="
M100.380898,111.070694 
	C96.916611,108.480179 94.401436,105.350029 94.947708,100.291718 
	C95.227943,99.089371 95.527374,98.318748 96.053650,96.981354 
	C96.444214,95.842346 96.607941,95.270111 96.771667,94.697891 
	C103.749786,88.388397 110.278481,81.453903 117.868919,75.995979 
	C122.680161,72.536446 128.995026,71.049355 134.771225,69.074486 
	C147.870010,64.596046 161.479019,65.341179 174.834061,66.772369 
	C180.758667,67.407280 186.455841,70.996529 192.046448,73.681541 
	C197.606918,76.352097 203.165894,79.195152 208.205826,82.708168 
	C210.699936,84.446648 211.007141,87.871979 207.857697,90.852280 
	C205.333466,90.501945 202.971313,90.362251 201.426529,89.166557 
	C189.427597,79.879105 175.751129,75.323395 160.771469,74.738937 
	C142.793228,74.037468 126.572784,78.924194 113.242256,91.453300 
	C111.582939,93.012871 111.181252,95.910515 110.196815,98.188141 
	C107.019112,102.410332 103.841415,106.632515 100.380898,111.070694 
z"/>
<path fill="#182E42" opacity="1.000000" stroke="none" 
	d="
M182.093781,184.024170 
	C182.095459,188.829605 181.934387,193.644287 182.207214,198.434280 
	C182.280228,199.716263 183.677856,200.922791 184.467377,202.163971 
	C185.915573,200.886642 188.259842,199.820557 188.621368,198.287033 
	C189.327286,195.292648 188.924835,192.037003 189.224289,188.404419 
	C189.978531,187.934250 190.489807,187.949203 191.004761,188.401611 
	C191.094498,190.487000 191.038956,192.156906 191.290436,193.779205 
	C192.575897,202.071335 196.681625,204.582932 204.746536,202.226654 
	C205.781616,201.924240 206.985336,202.199036 208.110931,202.206451 
	C202.391907,206.060410 196.886414,210.297607 190.883514,213.642044 
	C186.415405,216.131378 181.303207,217.464645 175.960709,218.980637 
	C173.740784,218.193802 172.060104,217.477051 170.331268,217.331223 
	C163.893555,216.788254 157.440048,216.432816 150.951996,215.606232 
	C150.273727,209.446289 149.760162,203.669128 148.931229,197.937546 
	C148.638519,195.913681 147.575272,194.001251 146.863815,192.037949 
	C150.675537,188.324158 155.105835,190.031525 159.255234,190.964478 
	C160.127441,191.160599 160.867096,193.609467 161.006577,195.082886 
	C161.392960,199.164993 161.430389,203.280151 162.121979,207.880676 
	C164.100998,208.236206 165.563797,208.093307 167.026581,207.950409 
	C167.026581,207.950409 167.006668,208.023575 167.243103,207.751190 
	C167.979675,205.777725 168.832932,204.092957 168.912506,202.372437 
	C169.134232,197.577637 169.035080,192.768005 169.509445,187.970276 
	C174.584198,188.446579 178.847031,187.795624 182.093781,184.024170 
z"/>
<path fill="#193245" opacity="1.000000" stroke="none" 
	d="
M208.424347,202.080109 
	C206.985336,202.199036 205.781616,201.924240 204.746536,202.226654 
	C196.681625,204.582932 192.575897,202.071335 191.290436,193.779205 
	C191.038956,192.156906 191.094498,190.487000 191.466766,188.405975 
	C195.368408,187.979065 198.811737,187.985214 202.255051,187.991364 
	C208.159119,187.497437 208.303223,182.575729 208.830597,178.600967 
	C209.264862,175.328110 209.781540,173.208130 213.433563,172.340317 
	C214.811523,172.012894 216.007965,169.898285 216.799973,168.349289 
	C218.272781,165.468796 219.388092,162.405533 221.113419,158.959488 
	C222.094940,154.699417 222.615265,150.898209 223.135590,147.097000 
	C223.138199,146.286819 223.140793,145.476654 223.378616,144.055145 
	C224.380981,142.237183 225.148102,141.030563 225.915237,139.823944 
	C226.645172,139.978363 227.375107,140.132782 228.105042,140.287201 
	C230.002716,144.757568 231.899124,149.228455 233.803802,153.695847 
	C233.864700,153.838699 234.010345,153.945435 234.116486,154.069016 
	C234.053864,154.817993 233.991241,155.566971 233.532089,156.810272 
	C227.984329,160.706161 227.481674,162.693268 230.152084,169.098938 
	C228.187576,180.143402 221.557068,188.523392 214.374573,196.558548 
	C212.646469,198.491791 210.624573,200.162399 208.424347,202.080109 
z"/>
<path fill="#12283A" opacity="1.000000" stroke="none" 
	d="
M182.334396,183.875183 
	C178.847031,187.795624 174.584198,188.446579 169.427719,187.784149 
	C168.107010,187.395599 167.314835,187.199234 166.522675,187.002869 
	C166.375000,186.256210 166.227341,185.509552 166.254608,184.329407 
	C166.327682,183.423401 166.225830,182.950897 166.123978,182.478363 
	C165.445999,182.728256 164.768036,182.978134 164.090073,183.228027 
	C159.269867,180.844498 154.449646,178.460983 149.119858,175.832336 
	C145.049026,174.716141 141.487793,173.845078 137.926544,172.973999 
	C139.632660,170.622742 142.125626,168.642929 139.714233,165.135910 
	C134.707062,157.853683 133.895187,149.490906 134.125336,140.497864 
	C139.037903,141.765823 140.773514,145.292068 141.841125,150.343384 
	C144.467484,162.769867 152.044754,171.449066 164.413300,175.189102 
	C177.335175,179.096451 189.022369,176.477142 199.082794,167.388428 
	C204.118042,162.839539 204.838867,162.838455 206.931076,168.641983 
	C201.976746,175.045471 196.389023,180.319717 188.461884,182.336105 
	C186.508148,182.833069 184.537735,183.264572 182.334396,183.875183 
z"/>
<path fill="#13283B" opacity="1.000000" stroke="none" 
	d="
M139.161163,195.186630 
	C133.569687,201.150131 128.098923,207.233963 122.330704,213.021286 
	C119.824837,215.535400 116.707184,217.439774 113.409775,220.046600 
	C112.628487,221.002914 112.304817,221.533691 111.981155,222.064468 
	C111.981155,222.064468 111.986420,221.983032 111.753639,222.092590 
	C111.011482,222.489822 110.502098,222.777512 109.992722,223.065216 
	C109.992722,223.065216 110.002838,222.996414 109.807709,223.211166 
	C109.069733,224.299377 108.526894,225.172836 107.984055,226.046310 
	C107.984062,226.046310 107.966713,225.989807 107.661423,225.991211 
	C106.911163,226.008698 106.466179,226.024765 105.803696,225.834427 
	C101.916977,222.111862 100.049576,225.754623 97.823952,227.645325 
	C93.043449,231.706482 88.955063,230.830460 86.452202,225.180634 
	C85.382050,222.764908 84.169678,220.412170 83.021927,218.030823 
	C91.768753,209.018051 100.515587,200.005295 109.509338,191.213333 
	C108.131706,194.559464 106.858452,197.945541 104.785652,200.738159 
	C102.633881,203.637146 100.720535,211.302643 102.569351,214.230499 
	C103.144638,215.141541 105.134659,215.914688 106.159744,215.625687 
	C108.164825,215.060349 110.253609,214.031555 111.767670,212.616653 
	C118.285690,206.525620 124.607849,200.224991 131.265106,193.799988 
	C132.275879,192.973755 132.930420,192.121033 133.789688,191.771332 
	C135.443741,191.098145 137.213638,190.709610 138.935486,190.203033 
	C139.010712,191.864227 139.085938,193.525436 139.161163,195.186630 
z"/>
<path fill="#1D374A" opacity="1.000000" stroke="none" 
	d="
M154.006302,117.009804 
	C154.600342,113.874176 155.194382,110.738548 155.854248,107.237595 
	C164.670090,101.461670 174.088562,100.642876 183.747681,103.450310 
	C188.849380,104.933113 193.688187,107.320351 199.251678,109.271843 
	C202.925537,111.170975 205.993393,113.097504 209.061264,115.024033 
	C207.380737,120.365837 213.289932,122.707077 213.860214,127.132095 
	C214.733063,133.904846 215.505020,140.690628 216.201599,147.783569 
	C214.060730,152.062164 211.781082,151.702576 209.152542,147.778809 
	C209.639755,132.454834 204.360596,120.691185 191.194778,113.841599 
	C178.444962,107.208443 165.765961,108.466614 154.006302,117.009804 
z"/>
<path fill="#173043" opacity="1.000000" stroke="none" 
	d="
M139.487640,195.078369 
	C139.085938,193.525436 139.010712,191.864227 138.935486,190.203033 
	C137.213638,190.709610 135.443741,191.098145 133.789688,191.771332 
	C132.930420,192.121033 132.275879,192.973755 130.919449,193.838364 
	C128.159302,193.514465 126.006828,192.958023 123.858459,192.386093 
	C122.492355,192.022446 120.735611,190.902878 119.839241,191.388107 
	C116.216866,193.348953 113.483376,191.696411 110.649750,189.875473 
	C115.942818,184.430771 121.257652,179.006973 126.519157,173.531937 
	C128.913147,171.040787 131.153580,170.899338 133.846176,173.225952 
	C134.542709,173.827820 136.239258,173.272415 137.701508,173.111298 
	C141.487793,173.845078 145.049026,174.716141 148.777374,175.744308 
	C148.240448,176.418442 147.536438,176.935486 146.564514,177.734619 
	C146.296616,178.016708 146.142441,178.056473 146.142441,178.056473 
	C142.965012,179.902634 141.336746,181.769226 144.627441,185.292343 
	C147.290146,188.143082 145.351166,191.672897 139.487640,195.078369 
z"/>
<path fill="#1A3245" opacity="1.000000" stroke="none" 
	d="
M234.288132,153.736710 
	C234.010345,153.945435 233.864700,153.838699 233.803802,153.695847 
	C231.899124,149.228455 230.002716,144.757568 228.105042,140.287201 
	C227.375107,140.132782 226.645172,139.978363 225.915237,139.823944 
	C225.148102,141.030563 224.380981,142.237183 223.425262,143.652222 
	C221.711624,136.113480 220.306564,128.339920 218.610504,120.630363 
	C217.771194,116.815155 221.787598,108.932060 225.511642,108.629066 
	C226.753540,108.528023 228.919846,110.209412 229.377289,111.523689 
	C234.099426,125.090508 236.781357,138.959549 234.288132,153.736710 
z"/>
<path fill="#172D3D" opacity="1.000000" stroke="none" 
	d="
M110.467926,97.995842 
	C111.181252,95.910515 111.582939,93.012871 113.242256,91.453300 
	C126.572784,78.924194 142.793228,74.037468 160.771469,74.738937 
	C175.751129,75.323395 189.427597,79.879105 201.426529,89.166557 
	C202.971313,90.362251 205.333466,90.501945 207.636185,91.080688 
	C204.862167,95.977211 203.676544,95.344315 199.248672,92.409973 
	C192.613739,88.013031 185.378937,84.006454 177.833786,81.626869 
	C168.182571,78.583069 157.921783,76.437805 147.732941,79.024544 
	C140.542145,80.850136 133.308517,83.150421 126.707558,86.461853 
	C120.939713,89.355347 116.028641,93.956711 110.467926,97.995842 
z"/>
<path fill="#162C40" opacity="1.000000" stroke="none" 
	d="
M110.488968,189.972168 
	C113.483376,191.696411 116.216866,193.348953 119.839241,191.388107 
	C120.735611,190.902878 122.492355,192.022446 123.858459,192.386093 
	C126.006828,192.958023 128.159302,193.514465 130.655701,194.039093 
	C124.607849,200.224991 118.285690,206.525620 111.767670,212.616653 
	C110.253609,214.031555 108.164825,215.060349 106.159744,215.625687 
	C105.134659,215.914688 103.144638,215.141541 102.569351,214.230499 
	C100.720535,211.302643 102.633881,203.637146 104.785652,200.738159 
	C106.858452,197.945541 108.131706,194.559464 109.794357,191.030655 
	C109.961967,190.409348 110.127205,190.223236 110.488968,189.972168 
z"/>
<path fill="#14846B" opacity="1.000000" stroke="none" 
	d="
M209.354553,114.866638 
	C205.993393,113.097504 202.925537,111.170975 199.534882,109.201294 
	C203.599808,105.101135 208.208527,101.252892 212.302673,96.918587 
	C215.372375,93.668846 217.779984,89.793701 221.121704,86.158699 
	C224.853607,88.108337 227.946182,90.096283 231.038742,92.084229 
	C223.908447,99.625900 216.778152,107.167572 209.354553,114.866638 
z"/>
<path fill="#0E2434" opacity="1.000000" stroke="none" 
	d="
M82.739288,218.208282 
	C84.169678,220.412170 85.382050,222.764908 86.452202,225.180634 
	C88.955063,230.830460 93.043449,231.706482 97.823952,227.645325 
	C100.049576,225.754623 101.916977,222.111862 105.786751,226.170624 
	C105.993820,227.163803 106.000320,227.614365 106.006828,228.064941 
	C106.006828,228.064941 105.982346,227.990417 105.785355,228.162689 
	C105.050072,228.909103 104.511780,229.483261 103.973480,230.057404 
	C103.973480,230.057404 103.982674,229.976761 103.746437,230.083420 
	C102.997704,230.477966 102.485214,230.765854 101.972725,231.053757 
	C101.972725,231.053757 101.982445,230.977432 101.830322,231.148529 
	C101.449333,231.566391 101.220459,231.813171 100.991592,232.059952 
	C100.991585,232.059952 100.981361,231.988922 100.829056,232.198303 
	C100.446205,232.711121 100.215652,233.014526 99.985100,233.317947 
	C95.540504,238.758957 89.221848,241.108398 84.160561,238.013321 
	C76.643616,233.416550 75.514534,224.083466 82.739288,218.208282 
z"/>
<path fill="#13896A" opacity="1.000000" stroke="none" 
	d="
M226.925446,72.953270 
	C230.228683,68.751572 235.880249,66.605484 239.427322,68.205902 
	C242.891205,69.768791 246.871429,76.721146 245.992767,79.983231 
	C245.745193,80.902367 244.805939,81.635193 243.665985,82.752663 
	C233.080551,84.141319 231.317978,83.373352 228.404892,76.596527 
	C227.887360,75.392593 227.417389,74.168205 226.925446,72.953270 
z"/>
<path fill="#17685C" opacity="1.000000" stroke="none" 
	d="
M226.608261,73.082336 
	C227.417389,74.168205 227.887360,75.392593 228.404892,76.596527 
	C231.317978,83.373352 233.080551,84.141319 243.561188,83.019333 
	C245.674606,88.035782 240.467621,86.919518 238.605896,88.658035 
	C236.852829,90.295120 234.054993,90.813416 231.377777,91.954071 
	C227.946182,90.096283 224.853607,88.108337 221.435822,86.014160 
	C223.167648,83.477112 226.104950,81.549057 224.444168,77.422043 
	C224.043854,76.427330 225.622498,74.636253 226.608261,73.082336 
z"/>
<path fill="#0E2434" opacity="1.000000" stroke="none" 
	d="
M150.992462,216.006973 
	C157.440048,216.432816 163.893555,216.788254 170.331268,217.331223 
	C172.060104,217.477051 173.740784,218.193802 175.675385,218.899124 
	C167.786148,219.468628 159.626709,220.407562 151.556335,219.907990 
	C145.224762,219.516037 138.973969,217.455795 132.773239,215.812408 
	C132.063950,215.624420 131.168839,212.880737 131.641968,212.129440 
	C132.823730,210.252869 134.743439,208.841019 136.586761,207.452042 
	C134.936005,211.548874 136.696777,213.555283 140.423950,214.294952 
	C143.922256,214.989197 147.467743,215.445801 150.992462,216.006973 
z"/>
<path fill="#13283B" opacity="1.000000" stroke="none" 
	d="
M150.951996,215.606232 
	C147.467743,215.445801 143.922256,214.989197 140.423950,214.294952 
	C136.696777,213.555283 134.936005,211.548874 136.910248,207.358582 
	C138.487427,206.655930 140.165359,205.598129 141.395752,205.980469 
	C144.995041,207.099014 146.465759,205.735657 146.642761,202.376312 
	C146.807877,199.242172 146.767822,196.097229 146.840942,192.497498 
	C147.575272,194.001251 148.638519,195.913681 148.931229,197.937546 
	C149.760162,203.669128 150.273727,209.446289 150.951996,215.606232 
M139.515747,206.518906 
	C139.515747,206.518906 139.511703,206.487564 139.515747,206.518906 
z"/>
<path fill="#75818A" opacity="1.000000" stroke="none" 
	d="
M118.351852,172.816788 
	C118.045448,158.333603 118.033760,143.635559 118.273445,128.398834 
	C118.696648,127.831642 118.868492,127.803116 119.040337,127.774582 
	C119.213593,134.387604 119.281235,141.005615 119.593727,147.612061 
	C119.841103,152.841843 120.725227,158.060516 120.676804,163.278091 
	C120.647903,166.392059 119.365509,169.494370 118.351852,172.816788 
z"/>
<path fill="#1A3245" opacity="1.000000" stroke="none" 
	d="
M106.008545,173.974762 
	C105.700691,175.146698 105.392838,176.318619 104.903717,177.652115 
	C104.766418,161.550171 104.810387,145.286667 105.201759,128.580032 
	C105.744339,128.146820 105.939507,128.156738 106.118462,128.620407 
	C106.071022,144.041031 106.039787,159.007904 106.008545,173.974762 
z"/>
<path fill="#2D3F4B" opacity="1.000000" stroke="none" 
	d="
M166.693832,187.451035 
	C167.314835,187.199234 168.107010,187.395599 168.980896,187.778107 
	C169.035080,192.768005 169.134232,197.577637 168.912506,202.372437 
	C168.832932,204.092957 167.979675,205.777725 167.206512,207.741241 
	C166.910660,201.302200 166.887833,194.600693 166.693832,187.451035 
z"/>
<path fill="#1A3245" opacity="1.000000" stroke="none" 
	d="
M230.392319,168.834259 
	C227.481674,162.693268 227.984329,160.706161 233.433380,157.172913 
	C232.698318,160.883987 231.665436,164.726791 230.392319,168.834259 
z"/>
<path fill="#2D3F4B" opacity="1.000000" stroke="none" 
	d="
M106.134666,128.166641 
	C105.939507,128.156738 105.744339,128.146820 105.256653,128.120422 
	C109.283875,124.299019 113.995621,125.866127 118.861801,127.438721 
	C118.868492,127.803116 118.696648,127.831642 118.273102,127.930191 
	C114.633774,128.021637 111.246155,128.043030 107.196060,128.091187 
	C106.533577,128.117950 106.134666,128.166641 106.134666,128.166641 
z"/>
<path fill="#1A3245" opacity="1.000000" stroke="none" 
	d="
M223.033722,147.383331 
	C222.615265,150.898209 222.094940,154.699417 221.342316,158.759766 
	C221.717300,155.235840 222.324570,151.452744 223.033722,147.383331 
z"/>
<path fill="#2D3F4B" opacity="1.000000" stroke="none" 
	d="
M202.047272,187.633377 
	C198.811737,187.985214 195.368408,187.979065 191.463074,187.968536 
	C190.489807,187.949203 189.978531,187.934250 189.276428,187.946472 
	C193.169907,184.690536 197.473251,185.408585 202.047272,187.633377 
z"/>
<path fill="#2D3F4B" opacity="1.000000" stroke="none" 
	d="
M164.383514,183.238281 
	C164.768036,182.978134 165.445999,182.728256 166.123978,182.478363 
	C166.225830,182.950897 166.327682,183.423401 166.272842,184.040405 
	C165.636414,183.872772 165.156677,183.560654 164.383514,183.238281 
z"/>
<path fill="#2D3F4B" opacity="1.000000" stroke="none" 
	d="
M166.610596,207.932220 
	C165.563797,208.093307 164.100998,208.236206 162.345215,208.237000 
	C163.433029,208.034592 164.813812,207.974304 166.610596,207.932220 
z"/>
<path fill="#162D40" opacity="1.000000" stroke="none" 
	d="
M96.656921,94.874115 
	C96.607941,95.270111 96.444214,95.842346 96.167770,96.690361 
	C96.217430,96.327545 96.379814,95.688950 96.656921,94.874115 
z"/>
<path fill="#2D3F4B" opacity="1.000000" stroke="none" 
	d="
M108.222961,225.830963 
	C108.526894,225.172836 109.069733,224.299377 109.841919,223.217377 
	C109.534798,223.877762 108.998329,224.746674 108.222961,225.830963 
z"/>
<path fill="#2D3F4B" opacity="1.000000" stroke="none" 
	d="
M106.265091,227.922821 
	C106.000320,227.614365 105.993820,227.163803 106.004257,226.377029 
	C106.466179,226.024765 106.911163,226.008698 107.690758,225.994781 
	C107.524704,226.591522 107.024033,227.186111 106.265091,227.922821 
z"/>
<path fill="#2D3F4B" opacity="1.000000" stroke="none" 
	d="
M104.220917,229.893036 
	C104.511780,229.483261 105.050072,228.909103 105.822617,228.150421 
	C105.527359,228.553497 104.997849,229.141083 104.220917,229.893036 
z"/>
<path fill="#2D3F4B" opacity="1.000000" stroke="none" 
	d="
M112.222229,221.858475 
	C112.304817,221.533691 112.628487,221.002914 113.140305,220.222427 
	C113.040070,220.532639 112.751694,221.092560 112.222229,221.858475 
z"/>
<path fill="#2D3F4B" opacity="1.000000" stroke="none" 
	d="
M110.302017,223.076508 
	C110.502098,222.777512 111.011482,222.489822 111.794350,222.095215 
	C111.582336,222.354782 111.096832,222.721298 110.302017,223.076508 
z"/>
<path fill="#2D3F4B" opacity="1.000000" stroke="none" 
	d="
M102.279396,231.041992 
	C102.485214,230.765854 102.997704,230.477966 103.786758,230.088013 
	C103.570908,230.334030 103.078484,230.682129 102.279396,231.041992 
z"/>
<path fill="#12283A" opacity="1.000000" stroke="none" 
	d="
M146.180389,178.093155 
	C146.142441,178.056473 146.296616,178.016708 146.373596,178.010757 
	C146.450562,178.004807 146.218323,178.129837 146.180389,178.093155 
z"/>
<path fill="#2D3F4B" opacity="1.000000" stroke="none" 
	d="
M101.254379,231.982056 
	C101.220459,231.813171 101.449333,231.566391 101.868492,231.153381 
	C101.878242,231.292816 101.697701,231.598480 101.254379,231.982056 
z"/>
<path fill="#2D3F4B" opacity="1.000000" stroke="none" 
	d="
M100.230240,233.150131 
	C100.215652,233.014526 100.446205,232.711121 100.864571,232.193192 
	C100.860054,232.313232 100.667717,232.647766 100.230240,233.150131 
z"/>
<path fill="#0E2434" opacity="1.000000" stroke="none" 
	d="
M106.118462,128.620407 
	C106.134666,128.166641 106.533577,128.117950 106.733612,128.106415 
	C106.952209,141.168457 107.000664,154.242111 106.957130,167.315460 
	C106.950592,169.278259 106.513618,171.239624 106.142159,173.588211 
	C106.039787,159.007904 106.071022,144.041031 106.118462,128.620407 
z"/>
<path fill="#020303" opacity="1.000000" stroke="none" 
	d="
M202.091278,149.024429 
	C198.809052,153.683731 195.805542,158.575119 192.170227,162.940369 
	C188.123840,167.799225 185.470947,167.521133 179.742920,164.965118 
	C176.303192,163.430191 171.925919,162.609039 168.742508,166.263840 
	C166.582321,168.743881 165.205521,168.905609 162.924805,166.106873 
	C160.681595,163.354141 157.367020,161.506104 154.778458,158.997086 
	C147.660721,152.098099 149.255142,143.337921 150.103760,134.142548 
	C151.245926,131.932755 152.075760,130.326355 153.115906,128.870209 
	C157.210342,123.138283 161.851532,117.465042 169.382629,117.314453 
	C176.730316,117.167534 184.384918,117.111526 190.992737,121.443100 
	C189.901672,123.088135 188.951752,124.454750 187.698151,125.945450 
	C184.942108,128.205795 182.636215,130.550095 179.990799,132.412003 
	C177.902725,133.881638 175.491394,135.407700 173.056915,135.761383 
	C168.089645,136.483032 164.278717,142.041504 165.867615,147.320892 
	C165.429016,152.473114 168.342316,155.468552 172.369034,156.701996 
	C177.425751,158.250946 181.997162,154.793823 184.049255,148.696533 
	C185.031784,147.653198 186.682983,146.469406 186.545242,146.199860 
	C184.539841,142.275787 188.141312,141.036438 189.873978,138.988098 
	C191.843613,136.659622 193.980804,134.472839 196.367523,132.049225 
	C197.394073,131.713715 198.098282,131.553467 198.931427,131.756943 
	C200.161865,136.251785 201.378586,140.357437 202.300797,144.528183 
	C202.613495,145.942352 202.182449,147.520966 202.091278,149.024429 
z"/>
<path fill="#11293B" opacity="1.000000" stroke="none" 
	d="
M202.481140,149.001923 
	C202.182449,147.520966 202.613495,145.942352 202.300797,144.528183 
	C201.378586,140.357437 200.161865,136.251785 198.980728,131.524017 
	C196.311996,127.673134 193.722946,124.418900 191.133881,121.164673 
	C184.384918,117.111526 176.730316,117.167534 169.382629,117.314453 
	C161.851532,117.465042 157.210342,123.138283 153.115906,128.870209 
	C152.075760,130.326355 151.245926,131.932755 150.097595,133.744629 
	C148.098938,134.019165 146.322128,134.019165 144.104797,134.019165 
	C144.428436,126.493607 149.673721,122.386238 153.806793,117.275223 
	C165.765961,108.466614 178.444962,107.208443 191.194778,113.841599 
	C204.360596,120.691185 209.639755,132.454834 208.970062,147.513977 
	C206.935272,148.304947 204.903137,148.642181 202.481140,149.001923 
z"/>
<path fill="#0E2434" opacity="1.000000" stroke="none" 
	d="
M139.513733,206.503235 
	C139.511703,206.487564 139.515747,206.518906 139.513733,206.503235 
z"/>
<path fill="#1A7B65" opacity="1.000000" stroke="none" 
	d="
M196.045151,132.224472 
	C193.980804,134.472839 191.843613,136.659622 189.873978,138.988098 
	C188.141312,141.036438 184.539841,142.275787 186.545242,146.199860 
	C186.682983,146.469406 185.031784,147.653198 183.673401,148.759979 
	C177.784744,151.011948 172.565170,152.201263 168.189453,146.965271 
	C167.893936,146.611633 166.706268,147.003555 165.933517,147.048721 
	C164.278717,142.041504 168.089645,136.483032 173.056915,135.761383 
	C175.491394,135.407700 177.902725,133.881638 179.990799,132.412003 
	C182.636215,130.550095 184.942108,128.205795 188.000214,126.098969 
	C191.085709,128.160431 193.565430,130.192444 196.045151,132.224472 
z"/>
<path fill="#1C5C55" opacity="1.000000" stroke="none" 
	d="
M165.867615,147.320892 
	C166.706268,147.003555 167.893936,146.611633 168.189453,146.965271 
	C172.565170,152.201263 177.784744,151.011948 183.510101,149.044708 
	C181.997162,154.793823 177.425751,158.250946 172.369034,156.701996 
	C168.342316,155.468552 165.429016,152.473114 165.867615,147.320892 
z"/>
<path fill="#1C5C55" opacity="1.000000" stroke="none" 
	d="
M196.367523,132.049225 
	C193.565430,130.192444 191.085709,128.160431 188.303925,125.974884 
	C188.951752,124.454750 189.901672,123.088135 190.992737,121.443100 
	C193.722946,124.418900 196.311996,127.673134 198.851776,131.160294 
	C198.098282,131.553467 197.394073,131.713715 196.367523,132.049225 
z"/>
</svg>